<svg xmlns="http://www.w3.org/2000/svg" xmlns:xlink="http://www.w3.org/1999/xlink" version="1.1" id="Capa_1" x="0px" y="0px" style="enable-background:new 0 0 441 110;" xml:space="preserve" nighteye="disabled" viewBox="19.7 8 71.4 82.7">
<style type="text/css">
	.st7{fill:#DDD;}
	.st8{fill:#28292B;}
</style>
<g>
	<g>
		<path class="st7" d="M64.9,20.5L55.4,8l-9.5,12.5c-15.1,4.2-26.2,18-26.2,34.5c0,19.7,16,35.7,35.7,35.7c19.7,0,35.7-16,35.7-35.7    C91.2,38.5,80.1,24.7,64.9,20.5z"/>
		<path class="st8" d="M86.1,48.9c-0.1-0.4-0.3-0.8-0.5-1.1c-0.1-0.2-0.3-0.4-0.6-0.6c-2.3-1.5-5.2,0.5-6.6,2.4    c-0.1,0.1-0.1,0.2,0,0.3c0.1,0.1,0.1,0.1,0.2,0.1c0,0,0.1,0,0.1,0c0.3-0.1,0.7-0.3,1-0.5c0.8-0.4,1.6-0.8,2.4-1    c-4.5,8.9-14.3,14.6-26.1,14.6h-1c-11.7,0-21.6-5.7-26.1-14.6c0.8,0.3,1.6,0.7,2.4,1c0.4,0.2,0.7,0.3,1,0.5c0,0,0.1,0,0.1,0    c0.1,0,0.2,0,0.2-0.1c0.1-0.1,0.1-0.2,0-0.3c-1.4-1.9-4.4-3.9-6.6-2.4c-0.3,0.2-0.5,0.4-0.6,0.6c-0.3,0.3-0.4,0.7-0.5,1.1    c-0.1,0.3-0.1,0.4-0.1,0.5c0,0.1,0.1,0.2,0.2,0.3c0.1,0,0.2,0,0.3-0.1c0.7-1.1,1.7-1.3,2.8-1.1c3.7,9.9,14.1,16.3,26.8,16.5H56    c12.7-0.2,23.1-6.6,26.8-16.5c1.1-0.2,2.1,0,2.8,1.1c0.1,0.1,0.2,0.2,0.3,0.1c0.1,0,0.2-0.1,0.2-0.3    C86.1,49.3,86.1,49.2,86.1,48.9z"/>
		<g>
			<g>
				<path class="st8" d="M64.5,28.9c-0.4,0.7,0.7,1.9,2.3,2.7c1.6,0.8,3.2,0.9,3.5,0.2c0.3-0.7-0.7-1.9-2.3-2.7      C66.4,28.3,64.8,28.2,64.5,28.9"/>
			</g>
			<g>
				<path class="st8" d="M46.5,28.9c0.4,0.7-0.7,1.9-2.3,2.7c-1.6,0.8-3.2,0.9-3.5,0.2c-0.3-0.7,0.7-1.9,2.3-2.7      C44.5,28.3,46.1,28.2,46.5,28.9"/>
			</g>
		</g>
		<g>
			<g>
				<path class="st8" d="M48.3,53.1c0,1.6-1.4,2.8-3,2.6C44,55.6,43,54.3,43,53l0-11.6c0-1.6,1.4-2.8,3-2.6c1.4,0.2,2.3,1.4,2.3,2.7      L48.3,53.1z"/>
			</g>
			<g>
				<path class="st8" d="M67.9,53c0,1.4-1,2.6-2.3,2.7c-1.6,0.2-3-1.1-3-2.6V41.4c0-1.4,1-2.6,2.3-2.8c1.6-0.2,3,1.1,3,2.6L67.9,53z      "/>
			</g>
		</g>
	</g>
</g>
</svg>